<?xml version="1.0" encoding="UTF-8"?>
<svg width="160px" height="71px" viewBox="0 0 160 71" version="1.1" xmlns="http://www.w3.org/2000/svg" xmlns:xlink="http://www.w3.org/1999/xlink">
    <title>555F0B8A-26DA-4B0D-AF51-1DB250B9064B</title>
    <defs>        
        <polygon id="path-3" points="0.130778228 0.0357613608 20.6236617 0.0357613608 20.6236617 24.6891099 0.130778228 24.6891099"></polygon>
        <polygon id="path-5" points="0.0800359874 0.25566489 6.94844804 0.25566489 6.94844804 10.4544301 0.0800359874 10.4544301"></polygon>
    </defs>
    <g id="Working-Pages-V1" stroke="none" stroke-width="1" fill="none" fill-rule="evenodd">
        <g id="1.0-Home" transform="translate(-31.000000, -78.000000)">
            
            <g id="Group-10" transform="translate(-0.500000, -0.000511)">
                <mask id="mask-2" fill="white">
                    <use xlink:href="#path-1"></use>
                </mask>
                <use id="Rectangle" fill="#F7D34F" xlink:href="#path-1"></use>
            </g>
            <g id="Group-6">
                <rect id="Rectangle" x="0" y="40" width="1440" height="150"></rect>
                <g id="Group-42" transform="translate(31.000000, 78.000000)">
                    <polygon id="Fill-1" fill="#2B2C3C" points="61.9251462 16.7614435 83.1753486 16.7614435 83.1753486 21.1231038 66.8467836 21.1231038 66.8467836 30.6528576 80.0516419 30.6528576 80.0516419 35.0145179 66.8467836 35.0145179 66.8467836 45.5864702 83.6957265 45.5864702 83.6957265 49.948491 61.9251462 49.948491"></polygon>
                    <polygon id="Fill-2" fill="#2B2C3C" points="122.448115 38.5227723 119.466559 41.2726479 119.466559 49.9483828 114.828502 49.9483828 114.828502 16.0504341 119.466559 16.0504341 119.466559 35.5836354 129.831291 26.0538817 135.794404 26.0538817 125.760756 35.3936532 136.693729 49.9483828 131.014197 49.9483828"></polygon>
                    <g id="Group-5" transform="translate(138.551507, 25.638949)">
                        <mask id="mask-4" fill="white">
                            <use xlink:href="#path-3"></use>
                        </mask>
                        <g id="Clip-4"></g>
                        <path d="M20.6238057,8.90147855 L20.6238057,24.309506 L16.0328925,24.309506 L16.0328925,20.4222605 C14.8967701,22.9825143 11.8680702,24.6891099 8.2711291,24.6891099 C3.3962753,24.6891099 0.178281601,21.7499731 0.178281601,17.4824026 C0.178281601,12.8838954 3.8220063,10.0388484 9.45439496,10.0388484 L14.4235358,10.0388484 C15.5117949,10.0388484 16.0328925,9.47034374 16.0328925,8.61704595 C16.0328925,5.7247738 13.9503014,3.73374562 10.2587135,3.73374562 C6.945713,3.73374562 4.53203779,5.81958467 4.39024741,8.23780249 L0.130778228,8.23780249 C0.509005848,3.54412389 4.76847503,0.0357613608 10.4008637,0.0357613608 C16.5532704,0.0357613608 20.6238057,3.59134907 20.6238057,8.90147855 M16.0328925,13.8320041 L16.0328925,13.2634994 L9.88012596,13.2634994 C6.75677913,13.2634994 4.72133153,14.8749236 4.72133153,17.3879523 C4.72133153,19.5686022 6.51998201,21.0383509 9.17045434,21.0383509 C13.5242105,21.0383509 16.0328925,18.2412501 16.0328925,13.8320041" id="Fill-3" fill="#2B2C3C" mask="url(#mask-4)"></path>
                    </g>
                    <polygon id="Fill-6" fill="#2B2C3C" points="61.8917859 57.103539 67.9639406 57.103539 67.9639406 57.9863976 62.8447323 57.9863976 62.8447323 61.576593 67.0394242 61.576593 67.0394242 62.4594516 62.8447323 62.4594516 62.8447323 67.0745418 61.8917859 67.0745418"></polygon>
                    <g id="Group-17" transform="translate(68.735942, 57.362737)" fill="#2B2C3C">
                        <path d="M6.15136302,9.71187713 L5.25563653,9.71187713 L5.25563653,8.21617263 C4.88604588,9.29874689 3.9762843,9.82579436 2.8380027,9.82579436 C1.21713,9.82579436 0.1648583,8.67220208 0.1648583,6.89170449 L0.1648583,2.53292815 L1.06094467,2.53292815 L1.06094467,6.77706626 C1.06094467,8.1163148 1.81452092,8.99953389 2.96647773,8.99953389 C4.30304993,8.99953389 5.25563653,7.91695963 5.25563653,6.39277583 L5.25563653,2.53292815 L6.15136302,2.53292815 L6.15136302,9.71187713 Z" id="Fill-7"></path>
                        <path d="M9.78961763,0.182628078 L9.78961763,2.53307235 L12.0643815,2.53307235 L12.0643815,3.35861183 L9.78961763,3.35861183 L9.78961763,7.56129271 C9.78961763,8.38755319 10.2592533,8.88576085 10.9836797,8.88576085 L12.0643815,8.88576085 L12.0643815,9.71202133 L10.9984345,9.71202133 C9.70468736,9.71202133 8.89317139,8.88576085 8.89317139,7.56129271 L8.89317139,3.35861183 L7.35866847,3.35861183 L7.35866847,2.53307235 L8.89317139,2.53307235 L8.89317139,0.182628078 L9.78961763,0.182628078 Z" id="Fill-9"></path>
                        <path d="M19.2584795,9.71187713 L18.3631129,9.71187713 L18.3631129,8.21617263 C17.9931624,9.29874689 17.0834008,9.82579436 15.9451192,9.82579436 C14.3242465,9.82579436 13.2719748,8.67220208 13.2719748,6.89170449 L13.2719748,2.53292815 L14.1677013,2.53292815 L14.1677013,6.77706626 C14.1677013,8.1163148 14.9216374,8.99953389 16.0735942,8.99953389 C17.4101664,8.99953389 18.3631129,7.91695963 18.3631129,6.39277583 L18.3631129,2.53292815 L19.2584795,2.53292815 L19.2584795,9.71187713 Z" id="Fill-11"></path>
                        <path d="M24.1339811,3.35846763 C22.5555735,3.35846763 22.1435178,4.81163341 22.1435178,6.64908962 L22.1435178,9.71187713 L21.2474314,9.71187713 L21.2474314,2.53256766 L22.1435178,2.53256766 L22.1435178,4.05675146 C22.4278183,3.05997563 23.0244894,2.53256766 24.1339811,2.53256766 L25.0721727,2.53256766 L25.0721727,3.35846763 L24.1339811,3.35846763 Z" id="Fill-13"></path>
                        <path d="M32.3235987,7.44679868 C32.0961583,8.88554455 30.8592713,9.82608276 29.0814935,9.82608276 C27.0478453,9.82608276 25.5691228,8.20168063 25.5691228,6.06501142 C25.5691228,3.88544301 26.9344849,2.41857832 28.9533783,2.41857832 C30.9157715,2.41857832 32.2383086,3.75782686 32.2383086,5.73767961 C32.2383086,5.86565626 32.2239136,6.10791064 32.2098785,6.20776847 L26.4792443,6.20776847 C26.5361044,7.8170297 27.6452362,8.99982229 29.0814935,8.99982229 C30.3468106,8.99982229 31.1435717,8.4302361 31.3854071,7.44679868 L32.3235987,7.44679868 Z M26.5361044,5.381508 L31.2997571,5.381508 C31.2004318,4.05667936 30.3187404,3.24483879 28.9533783,3.24483879 C27.6452362,3.24483879 26.7635448,4.04261995 26.5361044,5.381508 L26.5361044,5.381508 Z" id="Fill-15"></path>
                    </g>
                    <polygon id="Fill-18" fill="#2B2C3C" points="106.189474 57.103539 107.14242 57.103539 107.14242 66.1913227 112.247593 66.1913227 112.247593 67.0745418 106.189474 67.0745418"></polygon>
                    <g id="Group-27" transform="translate(113.000450, 59.525722)" fill="#2B2C3C">
                        <path d="M6.7820063,5.28381315 C6.55420603,6.72255903 5.31767881,7.66309723 3.53954116,7.66309723 C1.50625281,7.66309723 0.0271704903,6.0386951 0.0271704903,3.90202589 C0.0271704903,1.72245748 1.39253261,0.25559279 3.41178587,0.25559279 C5.37453891,0.25559279 6.69671615,1.59484133 6.69671615,3.57469408 C6.69671615,3.70267073 6.68232119,3.94492511 6.66792623,4.04478294 L0.937651822,4.04478294 C0.994511921,5.65404417 2.10364372,6.83683676 3.53954116,6.83683676 C4.80521817,6.83683676 5.60197931,6.26725057 5.84381466,5.28381315 L6.7820063,5.28381315 Z M0.994511921,3.21852247 L5.75744489,3.21852247 C5.65883941,1.89369383 4.777148,1.08185326 3.41178587,1.08185326 C2.10364372,1.08185326 1.22195232,1.87963442 0.994511921,3.21852247 L0.994511921,3.21852247 Z" id="Fill-19"></path>
                        <path d="M13.9752767,2.91909317 L13.9752767,7.5486032 L13.0795502,7.5486032 L13.0795502,6.23819447 C12.6523797,7.10699365 11.6573279,7.66288093 10.5050112,7.66288093 C8.96978857,7.66288093 7.98841206,6.82220056 7.98841206,5.49773242 C7.98841206,4.13000457 9.12597391,3.26120538 10.9037517,3.26120538 L12.6383446,3.26120538 C12.9510751,3.26120538 13.0795502,3.13286824 13.0795502,2.91909317 C13.0795502,1.83687941 12.3115789,1.08199746 10.9750067,1.08199746 C9.86587494,1.08199746 8.92696356,1.77956029 8.86974359,2.62024067 L7.97401709,2.62024067 C8.11688709,1.23881391 9.48224921,0.255736989 10.9750067,0.255736989 C12.85139,0.255736989 13.9752767,1.32425184 13.9752767,2.91909317 M13.0795502,4.2298624 L13.0795502,4.01644783 L10.9037517,4.01644783 C9.70932973,4.01644783 8.94135852,4.58603402 8.94135852,5.49773242 C8.94135852,6.30957299 9.58121457,6.83662046 10.5769861,6.83662046 C12.1546739,6.83662046 13.0795502,5.88238335 13.0795502,4.2298624" id="Fill-21"></path>
                        <path d="M18.6374809,1.1954821 C17.0590733,1.1954821 16.6470175,2.64864788 16.6470175,4.48610409 L16.6470175,7.5488916 L15.7509312,7.5488916 L15.7509312,0.369582127 L16.6470175,0.369582127 L16.6470175,1.89376593 C16.931318,0.896990099 17.5283491,0.369582127 18.6374809,0.369582127 L19.5756725,0.369582127 L19.5756725,1.1954821 L18.6374809,1.1954821 Z" id="Fill-23"></path>
                        <path d="M20.8540171,0.369942625 L21.7501035,0.369942625 L21.7501035,1.86492612 C22.120054,0.782712364 23.0298156,0.25566489 24.1673774,0.25566489 C25.7882501,0.25566489 26.8405218,1.40961767 26.8405218,3.19011526 L26.8405218,7.5488916 L25.9447953,7.5488916 L25.9447953,3.3040325 C25.9447953,1.96478396 25.1915789,1.08192536 24.0396221,1.08192536 C22.7030499,1.08192536 21.7501035,2.16449962 21.7501035,3.68832292 L21.7501035,7.5488916 L20.8540171,7.5488916 L20.8540171,0.369942625 Z" id="Fill-25"></path>
                    </g>
                    <path d="M141.730634,58.5563442 L142.811336,58.5563442 L142.811336,56.9892612 L141.730634,56.9892612 L141.730634,58.5563442 Z M141.8296,67.0745418 L142.725686,67.0745418 L142.725686,59.8955928 L141.8296,59.8955928 L141.8296,67.0745418 Z" id="Fill-28" fill="#2B2C3C"></path>
                    <g id="Group-40" transform="translate(0.000000, 0.043620)">
                        <path d="M144.715682,59.8520447 L145.611408,59.8520447 L145.611408,61.3470282 C145.981359,60.2648144 146.89112,59.7377669 148.028682,59.7377669 C149.649915,59.7377669 150.702186,60.8917197 150.702186,62.6722173 L150.702186,67.0309937 L149.80646,67.0309937 L149.80646,62.7861346 C149.80646,61.446886 149.052883,60.5640274 147.901287,60.5640274 C146.564354,60.5640274 145.611408,61.6466017 145.611408,63.170425 L145.611408,67.0309937 L144.715682,67.0309937 L144.715682,59.8520447 Z" id="Fill-29" fill="#2B2C3C"></path>
                        <g id="Group-33" transform="translate(152.226721, 59.482102)">
                            <mask id="mask-6" fill="white">
                                <use xlink:href="#path-5"></use>
                            </mask>
                            <g id="Clip-32"></g>
                            <path d="M6.94859199,0.369942625 L6.94859199,7.83368469 C6.94859199,9.35786849 5.85349528,10.4545022 4.31755286,10.4545022 L1.00419253,10.4545022 L1.00419253,9.62896268 L4.31755286,9.62896268 C5.32735942,9.62896268 6.0528655,8.87335974 6.0528655,7.83368469 L6.0528655,6.48037675 C5.72538012,7.17866057 4.70189834,7.66280883 3.56397661,7.66280883 C1.28849303,7.66280883 0.0800359874,6.01028789 0.0800359874,3.95941711 C0.0800359874,1.90818583 1.28849303,0.25566489 3.56397661,0.25566489 C4.55938821,0.25566489 5.59726496,0.782712364 6.0528655,1.5238954 L6.0528655,0.369942625 L6.94859199,0.369942625 Z M6.15147099,3.95941711 C6.15147099,2.22145824 5.14238417,1.08192536 3.59276653,1.08192536 C2.04206928,1.08192536 1.03298246,2.22145824 1.03298246,3.95941711 C1.03298246,5.69701549 2.04206928,6.83654836 3.59276653,6.83654836 C5.14238417,6.83654836 6.15147099,5.69701549 6.15147099,3.95941711 L6.15147099,3.95941711 Z" id="Fill-31" fill="#000000" mask="url(#mask-6)"></path>
                        </g>
                        <path d="M98.5910211,50.2837177 C106.097274,50.2837177 108.7661,45.8524813 108.7661,40.0902879 L108.7661,34.8320701 L108.7661,26.0103336 L104.175547,26.0103336 L104.175547,39.8069368 C104.175547,43.5997319 101.951165,45.8193156 98.5910211,45.8193156" id="Fill-34" fill="#2B2C3C"></path>
                        <path d="M98.5910211,50.2837177 C91.0844085,50.2837177 88.4155825,45.8524813 88.4155825,40.0902879 L88.4155825,34.8320701 L88.4155825,26.0103336 L93.0061359,26.0103336 L93.0061359,39.8069368 C93.0061359,43.5997319 95.2308772,45.8193156 98.5910211,45.8193156" id="Fill-36" fill="#2B2C3C"></path>
                        <path d="M22.742996,36.1158741 C20.4329645,30.1600934 15.6945029,25.4130612 9.74866397,23.0990272 C18.242771,19.7932643 24.2821772,11.5220076 24.2821772,1.85886976 L24.2821772,0.317021579 L3.59874044e-05,0.317021579 L3.59874044e-05,21.557179 L3.59874044e-05,24.6408753 L3.59874044e-05,42.7973364 L3.59874044e-05,44.3395451 L3.59874044e-05,44.3395451 C3.59874044e-05,56.8971181 10.2024651,67.1139802 22.742996,67.1139802 C35.2838866,67.1139802 45.4859559,56.8971181 45.4859559,44.3395451 L45.4859559,42.7973364 L45.4859559,21.557179 L43.9467746,21.557179 C34.3003509,21.557179 26.0430409,27.6070495 22.742996,36.1158741 L22.742996,36.1158741 Z M42.4075933,24.7007179 L42.4075933,42.8553765 C34.6688619,43.3770165 27.9820423,47.7898675 24.2821772,54.1555339 L24.2821772,44.3395451 C24.2821772,33.9968693 32.2814575,25.4902077 42.4075933,24.7007179 L42.4075933,24.7007179 Z M21.2038147,44.3395451 L21.2038147,54.1234496 C20.225677,52.4453333 19.0290958,50.8807738 17.6209087,49.4701467 C13.6907242,45.5327921 8.57367521,43.2205605 3.07875843,42.8546555 L3.07875843,24.7007179 C13.2048943,25.4902077 21.2038147,33.9968693 21.2038147,44.3395451 L21.2038147,44.3395451 Z M3.07875843,3.40071795 L21.1440756,3.40071795 C20.3955376,13.035016 12.6963923,20.7475014 3.07875843,21.4973364 L3.07875843,3.40071795 Z M3.14389564,45.9466433 C12.7075484,46.7231551 20.3588304,54.3858919 21.1383176,63.9650338 C11.5717859,63.187801 3.91978408,55.5254247 3.14389564,45.9466433 L3.14389564,45.9466433 Z M24.3469546,63.9653943 C24.7212236,59.3124519 26.7102474,54.9886438 30.0419613,51.6507966 C33.3754746,48.3115075 37.6946829,46.3186768 42.342816,45.9459223 C41.5665677,55.5247037 33.9134863,63.1881615 24.3469546,63.9653943 L24.3469546,63.9653943 Z" id="Fill-38" fill="#2B2C3C"></path>
                    </g>
                    <polygon id="Fill-41" fill="#2B2C3C" points="29.1041296 0.360461538 29.1041296 3.44451841 42.4072335 3.44451841 42.4072335 16.7706723 45.4859559 16.7706723 45.4859559 0.360461538"></polygon>
                </g>
            </g>
        </g>
    </g>
</svg>